<svg xmlns="http://www.w3.org/2000/svg" width="30" height="22" viewBox="0 0 30 22" fill="none">
  <path d="M30 17.0012V9.50122H20.1125C20.4091 7.75554 21.3132 6.17088 22.665 5.02722C24.0168 3.88355 25.7293 3.25451 27.5 3.25122V0.751221C24.8487 0.754198 22.3069 1.80872 20.4322 3.68344C18.5575 5.55816 17.503 8.09997 17.5 10.7512V22.0012H25C26.3261 22.0012 27.5979 21.4744 28.5355 20.5368C29.4732 19.5991 30 18.3273 30 17.0012V17.0012Z" fill="#CFCFCF"/>
  <path d="M7.5 22.0012C8.82608 22.0012 10.0979 21.4744 11.0355 20.5368C11.9732 19.5991 12.5 18.3273 12.5 17.0012V9.50122H2.6125C2.90909 7.75554 3.81315 6.17088 5.16496 5.02722C6.51677 3.88355 8.22931 3.25451 10 3.25122V0.751221C7.34875 0.754198 4.80694 1.80872 2.93222 3.68344C1.0575 5.55816 0.00297737 8.09997 0 10.7512V22.0012H7.5Z" fill="#CFCFCF"/>
</svg>